# xmcd CD database file
#
# Track frame offsets:
#	150
#	9747
#	27802
#	52157
#	70747
#	97552
#	117925
#	139742
#	166900
#	181755
#	200322
#
# Disc length: 2794 seconds
#
# Revision: 0
# Processed by: cddbd v1.5PL3 Copyright (c) Steve Scherf et al.
# Submitted via: CDex 1.51
#
DISCID=860ae80b
DTITLE=grandfathers - Western-Charnande
DYEAR=1989
DGENRE=Rock
TTITLE0=Western-Charnande
TTITLE1=僕は火の車
TTITLE2=ないしょの茂みにて
TTITLE3=Shoot My Eyes
TTITLE4=きかん坊
TTITLE5=ミンチとパンク
TTITLE6=Slit No.1
TTITLE7=Baby Fields
TTITLE8=Chicken Skin
TTITLE9=あなたとハイな午後
TTITLE10=Corn Freak(とうもろこし逃げた)
EXTD=YEAR: 1989
EXTT0=
EXTT1=
EXTT2=
EXTT3=
EXTT4=
EXTT5=
EXTT6=
EXTT7=
EXTT8=
EXTT9=
EXTT10=
PLAYORDER=
